<svg width="508" height="471" viewBox="0 0 508 471" fill="none" xmlns="http://www.w3.org/2000/svg">
<path d="M157.694 385.522C157.694 401.868 144.459 415.119 128.133 415.119C111.807 415.119 98.572 401.868 98.572 385.522C98.572 369.176 111.807 355.925 128.133 355.925C144.459 355.925 157.694 369.176 157.694 385.522ZM72.502 424.082C59.611 424.082 49.16 434.545 49.16 447.452C49.16 460.359 59.61 470.822 72.502 470.822C85.394 470.822 95.844 460.359 95.844 447.452C95.844 434.545 85.393 424.082 72.502 424.082ZM411.514 112.903C402.478 112.897 393.487 114.164 384.805 116.666C386.176 110.121 386.866 103.451 386.865 96.7632C386.865 43.5482 343.777 0.408203 290.626 0.408203C246.162 0.408203 208.748 30.6012 197.703 71.6242C183.939 49.5852 159.499 34.9152 131.623 34.9152C88.604 34.9152 53.729 69.8312 53.729 112.903C53.7137 126.222 57.1221 139.32 63.627 150.942C26.528 164.319 0 199.866 0 241.62C0 294.835 43.088 337.975 96.239 337.975C118.902 337.975 139.731 330.128 156.174 317.005C165.678 336.523 185.682 349.974 208.829 349.974C220.595 349.992 232.09 346.443 241.798 339.796C256.549 358.523 279.397 370.56 305.068 370.56C345.511 370.56 378.984 340.718 384.74 301.83C393.442 304.345 402.456 305.619 411.514 305.613C464.665 305.613 507.753 262.473 507.753 209.258C507.753 156.043 464.666 112.903 411.514 112.903Z" fill="white"/>
</svg>
