<svg width="20" height="30" viewBox="0 0 20 30" fill="none" xmlns="http://www.w3.org/2000/svg">
<path d="M4.27321 21.1682C3.21337 21.1682 2.35134 20.6895 1.70493 19.7391C1.05852 18.7887 0.634305 17.3784 0.387274 15.3264C0.023524 12.3024 0.384462 9.75355 1.40352 8.14984C2.00352 7.20531 2.79102 6.65922 3.68071 6.57133C4.44243 6.49516 5.58102 6.88129 6.68071 9.14945C7.36931 10.5698 7.8929 12.4565 8.11743 14.3256C8.38884 16.5821 8.18681 18.2432 7.49962 19.4028C6.95399 20.3239 6.11493 20.8946 5.0054 21.102C4.76297 21.1465 4.51824 21.1686 4.27321 21.1682ZM6.10931 29.0625C5.49009 29.0625 4.86243 28.8147 4.29712 28.3383C3.4814 27.6473 2.91676 26.5819 2.72587 25.3735C2.59227 24.5145 2.67243 23.8319 2.97056 23.2852C3.45477 22.3975 4.32384 22.1977 5.24352 21.9856C5.34056 21.9633 5.43899 21.9411 5.53884 21.917C5.75071 21.8666 5.96727 21.7998 6.17727 21.7348C6.96384 21.4922 7.77759 21.2409 8.44931 21.8373C8.89884 22.2358 9.15243 22.9131 9.22837 23.9069C9.31462 25.0536 9.11774 26.1979 8.67384 27.1295C8.19618 28.1321 7.47993 28.7948 6.65821 28.9963C6.47738 29.0405 6.29355 29.0626 6.10931 29.0625ZM15.7266 15.5432C15.4819 15.5421 15.2374 15.5186 14.9954 15.4729C13.8863 15.2678 13.0473 14.6965 12.5016 13.7737C11.8145 12.6141 11.611 10.9536 11.8838 8.69652C12.1084 6.82563 12.6306 4.94066 13.3159 3.52562C14.4099 1.26566 15.5499 0.873672 16.3159 0.942812C17.2027 1.02367 17.9888 1.56215 18.5898 2.50141C19.6159 4.10512 19.9796 6.66156 19.6145 9.69906C19.3674 11.7498 18.9488 13.1532 18.2968 14.1118C17.6448 15.0704 16.7865 15.5432 15.7266 15.5432ZM13.8906 23.4375C13.7068 23.4375 13.5234 23.4153 13.3431 23.3713C12.5199 23.1698 11.8037 22.5071 11.3274 21.5045C10.8835 20.5729 10.6866 19.4286 10.7729 18.2819C10.8479 17.2858 11.101 16.6108 11.552 16.2118C12.2237 15.6159 13.0374 15.8666 13.824 16.1098C14.034 16.1743 14.2506 16.2411 14.4624 16.292L14.7573 16.3606C15.6774 16.5721 16.5465 16.7707 17.0307 17.6596C17.3288 18.2063 17.409 18.8901 17.2754 19.7479C17.0847 20.9566 16.52 22.0223 15.7041 22.7133C15.1356 23.1903 14.5079 23.4375 13.8906 23.4375Z" fill="#B3B3B3"/>
</svg>