<svg width="45" height="45" viewBox="0 0 45 45" fill="none" xmlns="http://www.w3.org/2000/svg">
<path d="M11.7624 31.7523C9.77522 31.7523 8.15891 31.0342 6.9469 29.6087C5.73489 28.1831 4.93948 26.0675 4.47629 22.9896C3.79426 18.4536 4.47102 14.6303 6.38176 12.2248C7.50676 10.808 8.98332 9.98883 10.6515 9.85699C12.0797 9.74273 14.2146 10.3219 16.2765 13.7242C17.5676 15.8546 18.5493 18.6847 18.9703 21.4884C19.4792 24.8731 19.1004 27.3648 17.8119 29.1042C16.7889 30.4858 15.2156 31.3419 13.1353 31.653C12.6807 31.7197 12.2219 31.7529 11.7624 31.7523ZM15.2051 43.5938C14.0441 43.5938 12.8672 43.222 11.8072 42.5075C10.2778 41.471 9.21908 39.8728 8.86115 38.0602C8.61067 36.7717 8.76096 35.7478 9.31994 34.9278C10.2279 33.5963 11.8573 33.2965 13.5818 32.9784C13.7637 32.945 13.9483 32.9116 14.1355 32.8755C14.5327 32.8 14.9388 32.6998 15.3325 32.6022C16.8073 32.2383 18.3331 31.8613 19.5926 32.756C20.4355 33.3537 20.911 34.3697 21.0533 35.8603C21.2151 37.5803 20.8459 39.2968 20.0136 40.6943C19.118 42.1981 17.775 43.1922 16.2343 43.4945C15.8952 43.5607 15.5506 43.5939 15.2051 43.5938ZM33.2376 23.3148C32.7786 23.3132 32.3204 23.2779 31.8665 23.2093C29.787 22.9017 28.2138 22.0448 27.1907 20.6605C25.9023 18.9212 25.5208 16.4303 26.0323 13.0448C26.4533 10.2384 27.4324 7.411 28.7174 5.28844C30.7688 1.8985 32.9063 1.31051 34.3424 1.41422C36.0053 1.53551 37.4792 2.34322 38.606 3.75211C40.5299 6.15768 41.2119 9.99234 40.5273 14.5486C40.0641 17.6248 39.2792 19.7297 38.0567 21.1676C36.8341 22.6055 35.2248 23.3148 33.2376 23.3148ZM29.7949 35.1563C29.4504 35.1563 29.1066 35.123 28.7684 35.057C27.225 34.7547 25.8821 33.7606 24.9891 32.2568C24.1568 30.8593 23.7876 29.1428 23.9493 27.4228C24.09 25.9287 24.5646 24.9162 25.4101 24.3176C26.6696 23.4238 28.1953 23.8 29.6701 24.1647C30.0639 24.2614 30.4699 24.3616 30.8672 24.438L31.42 24.5409C33.1453 24.8582 34.7748 25.1561 35.6827 26.4894C36.2417 27.3094 36.392 28.3351 36.1415 29.6218C35.784 31.4348 34.7252 33.0334 33.1954 34.07C32.1293 34.7854 30.9525 35.1563 29.7949 35.1563Z" fill="#232323"/>
</svg>
