<svg width="500" height="500" viewBox="0 0 500 500" fill="none" xmlns="http://www.w3.org/2000/svg">
<mask id="mask0_158_1146" style="mask-type:luminance" maskUnits="userSpaceOnUse" x="191" y="132" width="119" height="144">
<path d="M191.078 132.359H309.078V275.359H191.078V132.359Z" fill="white"/>
</mask>
<g mask="url(#mask0_158_1146)">
<path d="M270.443 194.599L250 215.042L229.557 194.599C224.005 189.052 224.005 180.052 229.557 174.5L229.76 174.297C235.312 168.75 244.312 168.75 249.865 174.297L250 174.438L250.141 174.297C255.687 168.75 264.687 168.75 270.24 174.297L270.443 174.5C275.995 180.052 275.995 189.052 270.443 194.599ZM250.016 132.354C217.505 132.354 191.193 158.677 191.193 191.183C191.193 223.657 250.016 275.193 250.016 275.193C250.016 275.193 308.807 223.657 308.807 191.183C308.807 158.677 282.495 132.354 250.016 132.354Z" fill="#EE0000"/>
</g>
<path d="M151.349 297.238C150.682 297.947 149.953 298.301 149.161 298.301C148.37 298.301 147.667 297.967 147.057 297.301C146.458 296.634 146.161 295.884 146.161 295.051C146.161 294.358 146.401 293.728 146.891 293.155C148.25 291.546 149.708 290.415 151.266 289.759C152.833 289.108 154.588 288.78 156.536 288.78C158.687 288.78 160.542 289.191 162.099 290.009C163.651 290.832 165.021 291.801 166.203 292.926C167.505 291.134 168.979 289.9 170.62 289.217C172.255 288.525 173.932 288.176 175.641 288.176C176.943 288.176 178.172 288.504 179.328 289.155C180.479 289.811 181.417 290.749 182.141 291.967C182.875 293.176 183.245 294.634 183.245 296.342C183.245 298.04 182.838 299.613 182.036 301.072C181.229 302.53 180.167 303.697 178.849 304.572C177.526 305.436 176.104 305.863 174.578 305.863C173.521 305.921 172.542 305.733 171.641 305.301C170.75 304.858 169.937 304.358 169.203 303.801L164.557 317.467C165.318 318.207 166.047 318.905 166.745 319.572C167.437 320.238 168.187 320.79 168.995 321.217C169.797 321.634 170.724 321.842 171.766 321.842C173.401 321.842 174.922 321.379 176.328 320.447C177.745 319.504 178.953 317.738 179.953 315.155C180.229 314.421 180.63 313.884 181.161 313.551C181.703 313.217 182.255 313.051 182.828 313.051C183.521 313.051 184.161 313.275 184.745 313.717C185.328 314.165 185.62 314.749 185.62 315.467C185.62 315.717 185.568 315.978 185.474 316.238C184.109 320.353 182.146 323.395 179.578 325.363C177.005 327.337 174.172 328.322 171.078 328.322C168.953 328.322 167.109 327.926 165.557 327.134C164.016 326.342 162.646 325.384 161.453 324.259C160.146 326.025 158.568 327.353 156.724 328.238C154.875 329.113 152.917 329.551 150.849 329.551C149.026 329.551 147.333 329.207 145.766 328.53C144.193 327.853 142.937 326.874 141.995 325.592C141.068 324.316 140.599 322.811 140.599 321.072C140.599 320.738 140.615 320.395 140.641 320.03C140.672 319.671 140.734 319.29 140.828 318.884C141.245 317.092 142.016 315.65 143.141 314.551C144.266 313.441 145.578 312.624 147.078 312.092C148.588 311.551 150.088 311.28 151.578 311.28C152.911 311.28 154.151 311.483 155.307 311.884C156.458 312.275 157.495 312.754 158.411 313.322L163.411 299.03C162.328 297.936 161.187 296.988 159.995 296.197C158.812 295.405 157.453 295.009 155.911 295.009C155.088 295.009 154.297 295.212 153.536 295.613C152.771 296.004 152.042 296.546 151.349 297.238ZM174.995 294.884C174.411 294.884 173.833 295.103 173.266 295.53C172.708 295.947 172.224 296.613 171.807 297.53C172.083 297.895 172.443 298.254 172.891 298.613C173.349 298.978 173.911 299.155 174.578 299.155C175.213 299.155 175.771 298.962 176.245 298.572C176.713 298.171 176.953 297.624 176.953 296.926C176.953 296.233 176.776 295.717 176.432 295.384C176.083 295.051 175.604 294.884 174.995 294.884ZM150.661 323.759C151.729 323.759 152.771 323.379 153.786 322.613C154.797 321.837 155.672 320.645 156.411 319.03C155.745 318.421 155.057 317.936 154.349 317.572C153.651 317.212 152.896 317.03 152.078 317.03C151.047 317.03 150.151 317.322 149.391 317.905C148.625 318.478 148.125 319.186 147.891 320.03C147.849 320.186 147.818 320.342 147.807 320.509C147.792 320.676 147.786 320.837 147.786 320.988C147.786 321.754 148.036 322.405 148.536 322.947C149.036 323.488 149.745 323.759 150.661 323.759Z" fill="#4D3535"/>
<path d="M190.661 297.383C189.629 297.383 188.749 297.019 188.015 296.279C187.291 295.529 186.932 294.644 186.932 293.613C186.932 292.571 187.291 291.696 188.015 290.988C188.749 290.269 189.629 289.904 190.661 289.904C191.702 289.904 192.583 290.269 193.307 290.988C194.041 291.696 194.411 292.571 194.411 293.613C194.411 294.644 194.041 295.529 193.307 296.279C192.583 297.019 191.702 297.383 190.661 297.383ZM184.515 320.613C184.416 320.894 184.369 321.133 184.369 321.342C184.369 321.774 184.525 322.144 184.848 322.446C185.166 322.753 185.588 322.904 186.119 322.904C187.02 322.904 188.041 322.342 189.182 321.217C190.317 320.092 191.421 318.061 192.494 315.113C192.754 314.404 193.166 313.883 193.723 313.55C194.291 313.217 194.879 313.05 195.494 313.05C196.187 313.05 196.812 313.258 197.369 313.675C197.937 314.081 198.223 314.633 198.223 315.342C198.223 315.607 198.182 315.878 198.098 316.154C197.025 319.279 195.796 321.732 194.411 323.508C193.036 325.29 191.577 326.54 190.036 327.258C188.504 327.967 186.999 328.321 185.515 328.321C184.124 328.321 182.838 328.061 181.661 327.529C180.494 326.988 179.546 326.217 178.827 325.217C178.119 324.217 177.765 323.003 177.765 321.571C177.765 321.186 177.843 320.717 177.994 320.175C178.15 319.623 178.286 319.113 178.411 318.654C178.895 317.238 179.416 315.727 179.973 314.113C180.541 312.503 181.103 310.894 181.661 309.279C182.228 307.67 182.754 306.149 183.244 304.717C183.603 303.665 184.124 302.878 184.807 302.363C185.484 301.837 186.182 301.571 186.89 301.571C187.682 301.571 188.379 301.837 188.994 302.363C189.619 302.878 189.932 303.633 189.932 304.633C189.932 304.842 189.879 305.102 189.786 305.404C189.702 305.712 189.619 306.019 189.536 306.321L184.515 320.613Z" fill="#4D3535"/>
<path d="M216.403 315.196C216.653 314.436 217.069 313.879 217.653 313.53C218.246 313.186 218.851 313.009 219.465 313.009C220.158 313.009 220.778 313.207 221.319 313.592C221.871 313.967 222.153 314.519 222.153 315.238C222.153 315.545 222.075 315.899 221.924 316.3C220.892 319.248 219.679 321.603 218.278 323.363C216.871 325.113 215.387 326.379 213.819 327.155C212.262 327.936 210.715 328.321 209.174 328.321C207.892 328.321 206.694 328.082 205.569 327.592C204.444 327.108 203.538 326.384 202.861 325.425C202.179 324.467 201.84 323.295 201.84 321.905C201.84 321.42 201.887 320.925 201.986 320.425C202.095 319.915 202.241 319.399 202.424 318.884L205.757 309.509C205.908 309.05 205.986 308.67 205.986 308.363C205.986 307.936 205.851 307.592 205.59 307.342C205.325 307.082 204.986 306.946 204.569 306.946C203.929 306.946 203.236 307.228 202.486 307.78C201.746 308.321 201.075 309.17 200.465 310.321C199.95 311.78 199.382 313.399 198.757 315.175C198.132 316.957 197.507 318.728 196.882 320.488C196.257 322.254 195.674 323.879 195.132 325.363C194.799 326.394 194.226 327.155 193.424 327.655C192.616 328.155 191.819 328.405 191.028 328.405C190.309 328.405 189.668 328.196 189.111 327.78C188.543 327.353 188.257 326.712 188.257 325.863C188.257 325.462 188.319 325.082 188.444 324.717L196.049 303.446C196.283 302.811 196.674 302.337 197.215 302.03C197.767 301.728 198.366 301.571 199.007 301.571C199.616 301.571 200.179 301.686 200.694 301.905C201.205 302.113 201.528 302.425 201.653 302.842C202.804 301.998 204.262 301.571 206.028 301.571C207.236 301.571 208.345 301.858 209.361 302.425C210.387 302.983 211.205 303.738 211.819 304.696C212.444 305.655 212.757 306.738 212.757 307.946C212.757 308.686 212.59 309.524 212.257 310.467L208.715 320.571C208.559 321.087 208.486 321.467 208.486 321.717C208.486 322.509 208.908 322.905 209.757 322.905C210.825 322.905 211.95 322.311 213.132 321.113C214.309 319.905 215.403 317.936 216.403 315.196Z" fill="#4D3535"/>
<path d="M243.886 313.008C244.578 313.008 245.208 313.212 245.781 313.613C246.365 314.003 246.656 314.545 246.656 315.238C246.656 315.363 246.641 315.508 246.615 315.675C246.583 315.842 246.542 316.003 246.49 316.154C245.474 319.128 244.25 321.503 242.823 323.279C241.406 325.061 239.912 326.342 238.344 327.133C236.787 327.925 235.245 328.321 233.719 328.321C232.594 328.321 231.5 328.092 230.448 327.633C229.406 327.175 228.537 326.571 227.844 325.821C226.927 326.696 225.906 327.337 224.781 327.738C223.667 328.128 222.578 328.321 221.511 328.321C220.203 328.321 219.011 328.045 217.927 327.488C216.854 326.92 215.995 326.128 215.344 325.113C214.693 324.102 214.365 322.92 214.365 321.571C214.365 321.154 214.406 320.727 214.49 320.279C214.563 319.837 214.672 319.404 214.823 318.988L219.136 306.675C219.745 304.956 220.761 303.675 222.177 302.842C223.594 301.998 225.042 301.571 226.531 301.571C228.781 301.571 230.615 302.363 232.031 303.946L236.177 292.196C236.604 291.003 237.136 290.133 237.761 289.592C238.386 289.05 239.042 288.779 239.74 288.779C240.531 288.779 241.261 289.04 241.927 289.55C242.594 290.066 242.927 290.811 242.927 291.779C242.927 292.029 242.875 292.331 242.781 292.675C242.698 293.024 242.604 293.337 242.511 293.613L233.219 320.446C233.063 320.894 232.99 321.253 232.99 321.529C232.99 321.894 233.104 322.212 233.344 322.488C233.594 322.769 233.948 322.904 234.406 322.904C235.432 322.904 236.521 322.295 237.677 321.071C238.844 319.837 239.938 317.852 240.969 315.113C241.177 314.378 241.557 313.842 242.115 313.508C242.682 313.175 243.271 313.008 243.886 313.008ZM222.511 321.3C222.813 321.373 223.198 321.337 223.656 321.196C224.115 321.061 224.599 320.727 225.115 320.196C225.625 319.654 226.115 318.821 226.573 317.696L228.448 312.467C228.656 311.883 228.792 311.378 228.865 310.946C228.948 310.503 228.99 310.113 228.99 309.779C228.99 308.988 228.787 308.394 228.386 307.988C227.995 307.571 227.583 307.363 227.156 307.363C226.792 307.363 226.333 307.561 225.781 307.946C225.24 308.321 224.745 309.175 224.302 310.508L221.698 318.113C221.625 318.321 221.563 318.561 221.511 318.821C221.453 319.087 221.427 319.363 221.427 319.654C221.427 320.029 221.5 320.373 221.656 320.675C221.807 320.967 222.094 321.175 222.511 321.3Z" fill="#4D3535"/>
<path d="M265.353 315.113C265.587 314.352 265.967 313.8 266.498 313.467C267.04 313.133 267.592 312.967 268.165 312.967C268.899 312.967 269.55 313.186 270.123 313.613C270.707 314.029 270.998 314.592 270.998 315.3C270.998 315.54 270.946 315.821 270.853 316.154C269.754 319.321 268.504 321.79 267.103 323.55C265.712 325.3 264.259 326.54 262.748 327.258C261.233 327.967 259.748 328.321 258.29 328.321C257.009 328.321 255.795 328.081 254.644 327.592C253.488 327.107 252.55 326.378 251.832 325.404C251.123 324.436 250.769 323.232 250.769 321.8C250.769 320.899 250.946 319.899 251.311 318.8L254.644 309.279C254.754 309.029 254.811 308.753 254.811 308.446C254.811 308.029 254.665 307.675 254.373 307.383C254.092 307.092 253.728 306.946 253.269 306.946C252.571 306.946 251.863 307.238 251.144 307.821C250.436 308.394 249.837 309.123 249.353 310.008L243.832 325.592C243.498 326.54 243.019 327.232 242.394 327.675C241.78 328.107 241.134 328.321 240.457 328.321C239.707 328.321 239.014 328.029 238.373 327.446C237.738 326.852 237.415 326.029 237.415 324.988C237.415 324.42 237.519 323.831 237.728 323.217L248.665 292.238C249.092 291.019 249.603 290.133 250.186 289.592C250.78 289.05 251.519 288.779 252.394 288.779C253.155 288.779 253.853 289.04 254.478 289.55C255.103 290.066 255.415 290.811 255.415 291.779C255.415 292.087 255.363 292.404 255.269 292.738C255.186 293.071 255.082 293.42 254.957 293.779L252.082 302.175C252.998 301.774 253.967 301.571 254.998 301.571C256.248 301.571 257.363 301.863 258.353 302.446C259.337 303.019 260.113 303.79 260.686 304.758C261.269 305.732 261.561 306.831 261.561 308.05C261.561 308.441 261.524 308.842 261.457 309.258C261.399 309.665 261.295 310.081 261.144 310.508L257.415 321.113C257.316 321.311 257.269 321.508 257.269 321.717C257.269 322.05 257.399 322.337 257.665 322.571C257.925 322.795 258.269 322.904 258.686 322.904C259.728 322.904 260.842 322.295 262.04 321.071C263.233 319.837 264.337 317.852 265.353 315.113Z" fill="#4D3535"/>
<path d="M283.066 318.8C283.16 318.832 283.264 318.842 283.378 318.842C283.503 318.842 283.613 318.842 283.712 318.842C285.045 318.842 286.217 318.399 287.232 317.509C288.243 316.608 288.993 315.457 289.482 314.05C289.732 313.207 290.139 312.592 290.712 312.217C291.295 311.842 291.889 311.655 292.503 311.655C293.17 311.655 293.758 311.884 294.274 312.342C294.785 312.79 295.045 313.436 295.045 314.28C295.045 314.655 294.967 315.113 294.816 315.655C294.3 317.238 293.508 318.686 292.441 319.988C291.383 321.295 290.107 322.337 288.607 323.113C287.107 323.879 285.462 324.259 283.67 324.259C282.722 324.259 281.805 324.144 280.92 323.905C279.988 325.545 278.753 326.691 277.212 327.342C275.68 327.998 274.024 328.321 272.232 328.321C270.675 328.321 269.238 328.024 267.92 327.425C266.597 326.816 265.529 325.936 264.712 324.78C263.889 323.613 263.482 322.248 263.482 320.675C263.482 320.149 263.535 319.613 263.628 319.071C263.712 318.53 263.857 317.967 264.066 317.384L267.399 308.009C267.883 306.634 268.628 305.467 269.628 304.509C270.628 303.55 271.779 302.821 273.087 302.321C274.389 301.821 275.758 301.571 277.191 301.571C278.826 301.571 280.305 301.894 281.628 302.53C282.946 303.17 283.993 304.071 284.774 305.238C285.55 306.405 285.941 307.769 285.941 309.321C285.941 309.936 285.816 310.712 285.566 311.655C285.326 312.587 285.045 313.488 284.712 314.363C284.378 315.228 284.071 315.853 283.795 316.238C283.488 316.696 283.18 317.04 282.878 317.259C282.972 317.675 283.029 318.045 283.045 318.363C283.055 318.686 283.066 318.832 283.066 318.8ZM278.837 311.78C278.988 311.295 279.118 310.8 279.232 310.3C279.357 309.8 279.42 309.358 279.42 308.967C279.42 308.441 279.201 307.978 278.774 307.571C278.357 307.155 277.8 306.946 277.107 306.946C276.399 306.946 275.696 307.155 275.003 307.571C274.305 307.978 273.821 308.561 273.545 309.321L270.316 318.571C270.217 318.78 270.118 319.087 270.024 319.488C269.941 319.879 269.899 320.29 269.899 320.717C269.899 321.259 270.05 321.759 270.357 322.217C270.66 322.675 271.253 322.905 272.128 322.905C272.837 322.905 273.488 322.712 274.087 322.321C274.696 321.92 275.154 321.321 275.462 320.53C275.029 320.17 274.649 319.754 274.316 319.28C273.982 318.811 273.8 318.191 273.774 317.425C273.774 316.524 273.988 315.717 274.42 315.009C274.863 314.29 275.446 313.738 276.17 313.363C276.904 312.978 277.68 312.832 278.503 312.925C278.545 312.748 278.592 312.566 278.649 312.384C278.701 312.191 278.764 311.988 278.837 311.78Z" fill="#4D3535"/>
<path d="M293.829 320.904C293.787 321.019 293.745 321.149 293.704 321.3C293.662 321.456 293.641 321.581 293.641 321.675C293.641 322.008 293.756 322.3 293.995 322.55C294.245 322.79 294.599 322.904 295.058 322.904C296.11 322.904 297.25 322.295 298.474 321.071C299.709 319.837 300.849 317.852 301.891 315.113C302.224 314.269 302.662 313.665 303.204 313.3C303.756 312.925 304.318 312.738 304.891 312.738C305.584 312.738 306.204 312.977 306.745 313.446C307.297 313.92 307.579 314.519 307.579 315.238C307.579 315.519 307.537 315.821 307.454 316.154C306.381 319.321 305.11 321.79 303.641 323.55C302.167 325.3 300.641 326.54 299.058 327.258C297.474 327.967 295.954 328.321 294.495 328.321C293.162 328.321 291.922 328.071 290.787 327.571C289.646 327.071 288.735 326.337 288.058 325.363C287.381 324.394 287.037 323.206 287.037 321.8C287.037 320.857 287.219 319.873 287.579 318.842L297.058 291.779C297.75 289.779 298.954 288.779 300.662 288.779C301.355 288.779 302.026 289.04 302.683 289.55C303.334 290.066 303.662 290.758 303.662 291.633C303.662 292.123 303.568 292.644 303.391 293.196L293.829 320.904Z" fill="#4D3535"/>
<path d="M340.666 313.05C341.358 313.05 341.978 313.254 342.52 313.655C343.072 314.045 343.353 314.608 343.353 315.342C343.353 315.498 343.332 315.655 343.291 315.821C343.259 315.988 343.218 316.149 343.166 316.3C342.134 319.332 340.916 321.717 339.499 323.467C338.082 325.217 336.603 326.467 335.061 327.217C333.53 327.957 332.009 328.321 330.499 328.321C329.166 328.321 327.936 328.071 326.811 327.571C325.686 327.071 324.775 326.337 324.082 325.363C323.4 324.394 323.061 323.217 323.061 321.842C323.061 320.842 323.249 319.832 323.624 318.8L327.082 309.363C327.207 309.004 327.27 308.67 327.27 308.363C327.27 307.936 327.129 307.592 326.853 307.342C326.572 307.082 326.228 306.946 325.811 306.946C325.046 306.946 324.28 307.274 323.52 307.925C322.77 308.582 322.176 309.483 321.749 310.634L316.52 325.446C316.186 326.42 315.65 327.144 314.916 327.613C314.192 328.087 313.447 328.321 312.686 328.321C311.921 328.321 311.238 328.087 310.645 327.613C310.061 327.144 309.77 326.483 309.77 325.634C309.77 325.149 309.884 324.587 310.124 323.946L315.457 309.134C315.582 308.873 315.645 308.587 315.645 308.28C315.645 307.853 315.499 307.524 315.207 307.3C314.916 307.066 314.546 306.946 314.103 306.946C313.436 306.946 312.754 307.217 312.061 307.759C311.379 308.29 310.796 309.04 310.311 310.009L304.895 325.592C304.587 326.498 304.082 327.175 303.374 327.634C302.676 328.092 301.942 328.321 301.166 328.321C300.374 328.321 299.666 328.092 299.041 327.634C298.416 327.175 298.103 326.524 298.103 325.675C298.103 325.316 298.166 324.957 298.291 324.592L305.582 303.571C305.843 302.905 306.301 302.405 306.957 302.071C307.608 301.738 308.291 301.571 308.999 301.571C309.509 301.571 309.999 301.665 310.457 301.842C310.916 302.024 311.259 302.29 311.499 302.634C311.926 302.384 312.426 302.149 312.999 301.925C313.582 301.691 314.343 301.571 315.291 301.571C316.624 301.571 317.676 301.79 318.457 302.217C319.249 302.634 319.884 303.123 320.374 303.675C321.442 302.832 322.52 302.269 323.603 301.988C324.697 301.712 325.666 301.571 326.499 301.571C327.884 301.571 329.15 301.837 330.291 302.363C331.426 302.879 332.337 303.603 333.02 304.53C333.712 305.446 334.061 306.561 334.061 307.863C334.061 308.254 334.02 308.67 333.936 309.113C333.863 309.561 333.754 309.998 333.603 310.425L329.728 321.03C329.697 321.129 329.671 321.233 329.645 321.342C329.629 321.441 329.624 321.55 329.624 321.675C329.624 322.009 329.733 322.3 329.957 322.55C330.192 322.79 330.541 322.905 330.999 322.905C332.067 322.905 333.192 322.311 334.374 321.113C335.551 319.905 336.645 317.936 337.645 315.196C337.895 314.478 338.301 313.941 338.874 313.592C339.457 313.233 340.051 313.05 340.666 313.05Z" fill="#4D3535"/>
<path d="M360.29 315.425C360.54 314.758 360.915 314.279 361.415 313.988C361.915 313.696 362.436 313.55 362.978 313.55C363.712 313.55 364.384 313.769 364.998 314.196C365.623 314.628 365.936 315.175 365.936 315.842C365.936 315.925 365.936 316.024 365.936 316.133C365.936 316.248 365.905 316.342 365.853 316.425C364.795 319.498 363.337 321.92 361.478 323.696C359.629 325.477 357.519 326.748 355.144 327.508C352.78 328.258 350.274 328.633 347.623 328.633C344.957 328.633 342.686 328.29 340.811 327.592C338.946 326.899 337.53 325.956 336.561 324.758C335.592 323.55 335.103 322.206 335.103 320.717C335.103 319.748 335.269 318.758 335.603 317.758C335.936 316.748 336.441 315.857 337.123 315.092C337.8 314.316 338.649 313.8 339.665 313.55C340.566 311.857 341.488 310.133 342.436 308.383C343.379 306.633 344.29 304.899 345.165 303.175C345.592 302.29 346.212 301.628 347.019 301.196C347.821 300.753 348.649 300.529 349.498 300.529C350.649 300.529 351.566 300.92 352.248 301.696C352.925 302.462 353.269 303.331 353.269 304.3C353.269 304.982 353.045 305.649 352.603 306.3C352.17 306.956 351.634 307.415 350.998 307.675C351.092 308.383 351.337 309.123 351.728 309.883C352.129 310.633 352.55 311.404 352.998 312.196C353.634 313.253 354.238 314.399 354.811 315.633C355.394 316.857 355.686 318.144 355.686 319.488C355.686 319.795 355.67 320.087 355.644 320.363C355.613 320.628 355.571 320.915 355.519 321.217C356.571 320.607 357.498 319.821 358.29 318.863C359.082 317.904 359.748 316.758 360.29 315.425ZM345.853 314.196C346.238 314.587 346.524 315.04 346.707 315.55C346.899 316.05 346.998 316.561 346.998 317.071C346.998 318.196 346.629 319.227 345.894 320.154C345.17 321.071 344.134 321.529 342.79 321.529C342.649 321.529 342.483 321.524 342.29 321.508C342.108 321.498 341.925 321.477 341.748 321.446C341.998 322.019 342.441 322.467 343.082 322.8C343.717 323.133 344.415 323.3 345.165 323.3C346.384 323.248 347.28 322.837 347.853 322.071C348.436 321.295 348.728 320.373 348.728 319.3C348.728 318.232 348.488 317.175 348.019 316.133C347.545 315.092 346.962 314.154 346.269 313.321L345.853 314.196Z" fill="#4D3535"/>
<path d="M219.5 362.05C220.193 362.05 220.812 362.254 221.354 362.655C221.906 363.045 222.188 363.608 222.188 364.342C222.188 364.498 222.167 364.655 222.125 364.821C222.094 364.988 222.052 365.149 222 365.3C220.969 368.332 219.75 370.717 218.333 372.467C216.917 374.217 215.438 375.467 213.896 376.217C212.365 376.957 210.844 377.321 209.333 377.321C208 377.321 206.771 377.071 205.646 376.571C204.521 376.071 203.609 375.337 202.917 374.363C202.234 373.394 201.896 372.217 201.896 370.842C201.896 369.842 202.083 368.832 202.458 367.8L205.917 358.363C206.042 358.004 206.104 357.67 206.104 357.363C206.104 356.936 205.964 356.592 205.688 356.342C205.406 356.082 205.062 355.946 204.646 355.946C203.88 355.946 203.115 356.274 202.354 356.925C201.604 357.582 201.01 358.483 200.583 359.634L195.354 374.446C195.021 375.42 194.484 376.144 193.75 376.613C193.026 377.087 192.281 377.321 191.521 377.321C190.755 377.321 190.073 377.087 189.479 376.613C188.896 376.144 188.604 375.483 188.604 374.634C188.604 374.149 188.719 373.587 188.958 372.946L194.292 358.134C194.417 357.873 194.479 357.587 194.479 357.28C194.479 356.853 194.333 356.524 194.042 356.3C193.75 356.066 193.38 355.946 192.938 355.946C192.271 355.946 191.589 356.217 190.896 356.759C190.214 357.29 189.63 358.04 189.146 359.009L183.729 374.592C183.422 375.498 182.917 376.175 182.208 376.634C181.51 377.092 180.776 377.321 180 377.321C179.208 377.321 178.5 377.092 177.875 376.634C177.25 376.175 176.938 375.524 176.938 374.675C176.938 374.316 177 373.957 177.125 373.592L184.417 352.571C184.677 351.905 185.135 351.405 185.792 351.071C186.443 350.738 187.125 350.571 187.833 350.571C188.344 350.571 188.833 350.665 189.292 350.842C189.75 351.024 190.094 351.29 190.333 351.634C190.76 351.384 191.26 351.149 191.833 350.925C192.417 350.691 193.177 350.571 194.125 350.571C195.458 350.571 196.51 350.79 197.292 351.217C198.083 351.634 198.719 352.123 199.208 352.675C200.276 351.832 201.354 351.269 202.438 350.988C203.531 350.712 204.5 350.571 205.333 350.571C206.719 350.571 207.984 350.837 209.125 351.363C210.26 351.879 211.172 352.603 211.854 353.53C212.547 354.446 212.896 355.561 212.896 356.863C212.896 357.254 212.854 357.67 212.771 358.113C212.698 358.561 212.589 358.998 212.438 359.425L208.562 370.03C208.531 370.129 208.505 370.233 208.479 370.342C208.464 370.441 208.458 370.55 208.458 370.675C208.458 371.009 208.568 371.3 208.792 371.55C209.026 371.79 209.375 371.905 209.833 371.905C210.901 371.905 212.026 371.311 213.208 370.113C214.385 368.905 215.479 366.936 216.479 364.196C216.729 363.478 217.135 362.941 217.708 362.592C218.292 362.233 218.885 362.05 219.5 362.05Z" fill="#4D3535"/>
<path d="M227.187 346.383C226.156 346.383 225.276 346.019 224.541 345.279C223.817 344.529 223.458 343.644 223.458 342.613C223.458 341.571 223.817 340.696 224.541 339.988C225.276 339.269 226.156 338.904 227.187 338.904C228.229 338.904 229.109 339.269 229.833 339.988C230.567 340.696 230.937 341.571 230.937 342.613C230.937 343.644 230.567 344.529 229.833 345.279C229.109 346.019 228.229 346.383 227.187 346.383ZM221.041 369.613C220.942 369.894 220.895 370.133 220.895 370.342C220.895 370.774 221.052 371.144 221.375 371.446C221.692 371.753 222.114 371.904 222.645 371.904C223.546 371.904 224.567 371.342 225.708 370.217C226.843 369.092 227.948 367.061 229.02 364.113C229.281 363.404 229.692 362.883 230.25 362.55C230.817 362.217 231.406 362.05 232.02 362.05C232.713 362.05 233.338 362.258 233.895 362.675C234.463 363.081 234.75 363.633 234.75 364.342C234.75 364.607 234.708 364.878 234.625 365.154C233.552 368.279 232.323 370.732 230.937 372.508C229.562 374.29 228.104 375.54 226.562 376.258C225.031 376.967 223.526 377.321 222.041 377.321C220.651 377.321 219.364 377.061 218.187 376.529C217.02 375.988 216.073 375.217 215.354 374.217C214.645 373.217 214.291 372.003 214.291 370.571C214.291 370.186 214.369 369.717 214.52 369.175C214.677 368.623 214.812 368.113 214.937 367.654C215.421 366.238 215.942 364.727 216.5 363.113C217.067 361.503 217.63 359.894 218.187 358.279C218.755 356.67 219.281 355.149 219.77 353.717C220.13 352.665 220.651 351.878 221.333 351.363C222.01 350.837 222.708 350.571 223.416 350.571C224.208 350.571 224.906 350.837 225.52 351.363C226.145 351.878 226.458 352.633 226.458 353.633C226.458 353.842 226.406 354.102 226.312 354.404C226.229 354.712 226.145 355.019 226.062 355.321L221.041 369.613Z" fill="#4D3535"/>
<path d="M252.929 364.196C253.179 363.436 253.596 362.879 254.179 362.53C254.773 362.186 255.377 362.009 255.992 362.009C256.684 362.009 257.304 362.207 257.846 362.592C258.398 362.967 258.679 363.519 258.679 364.238C258.679 364.545 258.601 364.899 258.45 365.3C257.419 368.248 256.205 370.603 254.804 372.363C253.398 374.113 251.913 375.379 250.346 376.155C248.788 376.936 247.242 377.321 245.7 377.321C244.419 377.321 243.221 377.082 242.096 376.592C240.971 376.108 240.064 375.384 239.387 374.425C238.705 373.467 238.367 372.295 238.367 370.905C238.367 370.42 238.413 369.925 238.512 369.425C238.622 368.915 238.768 368.399 238.95 367.884L242.283 358.509C242.434 358.05 242.512 357.67 242.512 357.363C242.512 356.936 242.377 356.592 242.117 356.342C241.851 356.082 241.512 355.946 241.096 355.946C240.455 355.946 239.762 356.228 239.012 356.78C238.273 357.321 237.601 358.17 236.992 359.321C236.476 360.78 235.908 362.399 235.283 364.175C234.658 365.957 234.033 367.728 233.408 369.488C232.783 371.254 232.2 372.879 231.658 374.363C231.325 375.394 230.752 376.155 229.95 376.655C229.143 377.155 228.346 377.405 227.554 377.405C226.835 377.405 226.195 377.196 225.637 376.78C225.07 376.353 224.783 375.712 224.783 374.863C224.783 374.462 224.846 374.082 224.971 373.717L232.575 352.446C232.809 351.811 233.2 351.337 233.742 351.03C234.294 350.728 234.893 350.571 235.533 350.571C236.143 350.571 236.705 350.686 237.221 350.905C237.731 351.113 238.054 351.425 238.179 351.842C239.33 350.998 240.788 350.571 242.554 350.571C243.762 350.571 244.872 350.858 245.887 351.425C246.913 351.983 247.731 352.738 248.346 353.696C248.971 354.655 249.283 355.738 249.283 356.946C249.283 357.686 249.117 358.524 248.783 359.467L245.242 369.571C245.085 370.087 245.012 370.467 245.012 370.717C245.012 371.509 245.434 371.905 246.283 371.905C247.351 371.905 248.476 371.311 249.658 370.113C250.835 368.905 251.929 366.936 252.929 364.196Z" fill="#4D3535"/>
<path d="M276.849 364.196C277.099 363.436 277.516 362.879 278.099 362.53C278.693 362.186 279.297 362.009 279.912 362.009C280.605 362.009 281.224 362.207 281.766 362.592C282.318 362.967 282.599 363.519 282.599 364.238C282.599 364.545 282.521 364.899 282.37 365.3C281.339 368.248 280.125 370.603 278.724 372.363C277.318 374.113 275.834 375.379 274.266 376.155C272.709 376.936 271.162 377.321 269.62 377.321C268.339 377.321 267.141 377.082 266.016 376.592C264.891 376.108 263.985 375.384 263.308 374.425C262.625 373.467 262.287 372.295 262.287 370.905C262.287 370.42 262.334 369.925 262.433 369.425C262.542 368.915 262.688 368.399 262.87 367.884L266.204 358.509C266.355 358.05 266.433 357.67 266.433 357.363C266.433 356.936 266.297 356.592 266.037 356.342C265.771 356.082 265.433 355.946 265.016 355.946C264.375 355.946 263.683 356.228 262.933 356.78C262.193 357.321 261.521 358.17 260.912 359.321C260.396 360.78 259.829 362.399 259.204 364.175C258.579 365.957 257.954 367.728 257.329 369.488C256.704 371.254 256.12 372.879 255.579 374.363C255.245 375.394 254.672 376.155 253.87 376.655C253.063 377.155 252.266 377.405 251.474 377.405C250.756 377.405 250.115 377.196 249.558 376.78C248.99 376.353 248.704 375.712 248.704 374.863C248.704 374.462 248.766 374.082 248.891 373.717L256.495 352.446C256.73 351.811 257.12 351.337 257.662 351.03C258.214 350.728 258.813 350.571 259.454 350.571C260.063 350.571 260.625 350.686 261.141 350.905C261.652 351.113 261.974 351.425 262.099 351.842C263.25 350.998 264.709 350.571 266.474 350.571C267.683 350.571 268.792 350.858 269.808 351.425C270.834 351.983 271.652 352.738 272.266 353.696C272.891 354.655 273.204 355.738 273.204 356.946C273.204 357.686 273.037 358.524 272.704 359.467L269.162 369.571C269.006 370.087 268.933 370.467 268.933 370.717C268.933 371.509 269.355 371.905 270.204 371.905C271.271 371.905 272.396 371.311 273.579 370.113C274.756 368.905 275.849 366.936 276.849 364.196Z" fill="#4D3535"/>
<path d="M298.415 364.467C298.624 363.774 299.02 363.254 299.603 362.905C300.197 362.561 300.816 362.384 301.457 362.384C302.15 362.384 302.759 362.571 303.29 362.946C303.832 363.321 304.103 363.863 304.103 364.571C304.103 364.879 304.04 365.196 303.915 365.53C302.915 368.405 301.52 370.712 299.728 372.446C297.936 374.186 295.957 375.436 293.79 376.196C291.634 376.946 289.499 377.321 287.374 377.321C285.165 377.321 283.171 376.967 281.395 376.259C279.613 375.54 278.207 374.519 277.165 373.196C276.134 371.879 275.624 370.321 275.624 368.53C275.624 368.019 275.671 367.488 275.77 366.946C275.879 366.394 276.03 365.842 276.228 365.3L278.915 357.509C279.691 355.233 280.978 353.509 282.77 352.342C284.572 351.165 286.488 350.571 288.52 350.571C290.254 350.571 291.754 350.905 293.02 351.571C294.296 352.238 295.29 353.155 295.999 354.321C296.718 355.478 297.082 356.78 297.082 358.238C297.082 358.988 296.962 359.821 296.728 360.738C296.113 362.769 294.968 364.394 293.29 365.613C291.624 366.821 289.759 367.425 287.707 367.425C286.79 367.425 285.926 367.3 285.124 367.05C284.316 366.79 283.582 366.462 282.915 366.071L282.561 366.925C282.462 367.149 282.4 367.363 282.374 367.571C282.343 367.78 282.332 367.998 282.332 368.217C282.332 369.248 282.816 370.123 283.79 370.842C284.759 371.55 286.082 371.905 287.749 371.905C289.051 371.905 290.395 371.655 291.77 371.155C293.155 370.655 294.441 369.858 295.624 368.759C296.816 367.665 297.749 366.233 298.415 364.467ZM288.374 355.946C287.858 355.946 287.343 356.149 286.832 356.55C286.316 356.941 285.936 357.483 285.686 358.175L284.749 360.925C285.374 361.29 286.155 361.467 287.103 361.467C287.811 361.467 288.462 361.316 289.061 361.009C289.671 360.707 290.082 360.175 290.29 359.425C290.415 359.082 290.478 358.712 290.478 358.321C290.478 357.655 290.28 357.092 289.895 356.634C289.52 356.175 289.009 355.946 288.374 355.946Z" fill="#4D3535"/>
<path d="M322.366 364.196C322.616 363.436 323.033 362.879 323.616 362.53C324.21 362.186 324.814 362.009 325.429 362.009C326.122 362.009 326.741 362.207 327.283 362.592C327.835 362.967 328.116 363.519 328.116 364.238C328.116 364.545 328.038 364.899 327.887 365.3C326.856 368.248 325.642 370.603 324.241 372.363C322.835 374.113 321.351 375.379 319.783 376.155C318.226 376.936 316.679 377.321 315.137 377.321C313.856 377.321 312.658 377.082 311.533 376.592C310.408 376.108 309.502 375.384 308.825 374.425C308.142 373.467 307.804 372.295 307.804 370.905C307.804 370.42 307.851 369.925 307.95 369.425C308.059 368.915 308.205 368.399 308.387 367.884L311.72 358.509C311.872 358.05 311.95 357.67 311.95 357.363C311.95 356.936 311.814 356.592 311.554 356.342C311.288 356.082 310.95 355.946 310.533 355.946C309.892 355.946 309.2 356.228 308.45 356.78C307.71 357.321 307.038 358.17 306.429 359.321C305.913 360.78 305.345 362.399 304.72 364.175C304.095 365.957 303.47 367.728 302.845 369.488C302.22 371.254 301.637 372.879 301.095 374.363C300.762 375.394 300.189 376.155 299.387 376.655C298.58 377.155 297.783 377.405 296.991 377.405C296.273 377.405 295.632 377.196 295.075 376.78C294.507 376.353 294.22 375.712 294.22 374.863C294.22 374.462 294.283 374.082 294.408 373.717L302.012 352.446C302.247 351.811 302.637 351.337 303.179 351.03C303.731 350.728 304.33 350.571 304.97 350.571C305.58 350.571 306.142 350.686 306.658 350.905C307.168 351.113 307.491 351.425 307.616 351.842C308.767 350.998 310.226 350.571 311.991 350.571C313.2 350.571 314.309 350.858 315.325 351.425C316.351 351.983 317.168 352.738 317.783 353.696C318.408 354.655 318.72 355.738 318.72 356.946C318.72 357.686 318.554 358.524 318.22 359.467L314.679 369.571C314.523 370.087 314.45 370.467 314.45 370.717C314.45 371.509 314.872 371.905 315.72 371.905C316.788 371.905 317.913 371.311 319.095 370.113C320.273 368.905 321.366 366.936 322.366 364.196Z" fill="#4D3535"/>
</svg>
