<svg width="30" height="36" viewBox="0 0 30 36" fill="none" xmlns="http://www.w3.org/2000/svg">
<g clip-path="url(#clip0_179_547)">
<mask id="mask0_179_547" style="mask-type:luminance" maskUnits="userSpaceOnUse" x="0" y="0" width="30" height="36">
<path d="M0 0H30V36H0V0Z" fill="white"/>
</mask>
<g mask="url(#mask0_179_547)">
<path d="M20.1774 15.67L14.9801 20.8164L9.78276 15.67C8.37121 14.2736 8.37121 12.0079 9.78276 10.6101L9.8344 10.559C11.246 9.16259 13.5341 9.16259 14.9456 10.559L14.9801 10.5944L15.0158 10.559C16.426 9.16259 18.7142 9.16259 20.1257 10.559L20.1774 10.6101C21.5889 12.0079 21.5889 14.2736 20.1774 15.67ZM14.984 0C6.71867 0 0.0290527 6.62675 0.0290527 14.8099C0.0290527 22.9851 14.984 35.9594 14.984 35.9594C14.984 35.9594 29.9311 22.9851 29.9311 14.8099C29.9311 6.62675 23.2414 0 14.984 0Z" fill="#EE0000"/>
</g>
</g>
<defs>
<clipPath id="clip0_179_547">
<rect width="30" height="36" fill="white"/>
</clipPath>
</defs>
</svg>
