<svg xmlns="http://www.w3.org/2000/svg" width="1em" height="1em" viewBox="-10 -10 532 532">
    <path fill="#fefefe" stroke="#000000" stroke-width="24" d="M157.694 394.522c0 16.346-13.235 29.597-29.561 29.597s-29.561-13.251-29.561-29.597s13.235-29.597 29.561-29.597s29.561 13.251 29.561 29.597m-85.192 38.56c-12.891 0-23.342 10.463-23.342 23.37s10.45 23.37 23.342 23.37s23.342-10.463 23.342-23.37s-10.451-23.37-23.342-23.37m339.012-311.179a96.2 96.2 0 0 0-26.709 3.763a97 97 0 0 0 2.06-19.903c0-53.215-43.088-96.355-96.239-96.355c-44.464 0-81.878 30.193-92.923 71.216c-13.764-22.039-38.204-36.709-66.08-36.709c-43.019 0-77.894 34.916-77.894 77.988a77.7 77.7 0 0 0 9.898 38.039C26.528 173.319 0 208.866 0 250.62c0 53.215 43.088 96.355 96.239 96.355c22.663 0 43.492-7.847 59.935-20.97c9.504 19.518 29.508 32.969 52.655 32.969a58.2 58.2 0 0 0 32.969-10.178c14.751 18.727 37.599 30.764 63.27 30.764c40.443 0 73.916-29.842 79.672-68.73a96.2 96.2 0 0 0 26.774 3.783c53.151 0 96.239-43.14 96.239-96.355s-43.087-96.355-96.239-96.355" />
</svg>
