<svg width="47" height="45" viewBox="0 0 47 45" fill="none" xmlns="http://www.w3.org/2000/svg">
<path d="M20.1358 13.1233H13.3845C12.671 13.1231 11.9748 13.3598 11.3903 13.8012C10.8059 14.2426 10.3614 14.8675 10.1174 15.5908L3.58338 34.9821C3.35226 35.6664 3.5104 36.4333 3.98655 36.9489L4.49572 37.4983L15.6558 25.4571C15.654 25.4083 15.6419 25.3596 15.6419 25.3108C15.6419 24.7546 15.7947 24.2108 16.0812 23.7483C16.3676 23.2858 16.7747 22.9253 17.251 22.7124C17.7273 22.4995 18.2514 22.4438 18.7571 22.5524C19.2627 22.6609 19.7272 22.9287 20.0917 23.3221C20.4563 23.7154 20.7045 24.2166 20.8051 24.7621C20.9057 25.3077 20.8541 25.8732 20.6568 26.3871C20.4595 26.901 20.1254 27.3403 19.6967 27.6493C19.2681 27.9584 18.7641 28.1233 18.2485 28.1233C18.2034 28.1233 18.1582 28.1102 18.113 28.1083L6.95294 40.1496L7.46212 40.6989C7.69611 40.9511 7.99194 41.126 8.31484 41.203C8.63775 41.2801 8.97433 41.2561 9.28505 41.1339L27.2572 34.0821C27.9276 33.8188 28.5067 33.3393 28.9159 32.7087C29.325 32.078 29.5443 31.3268 29.5441 30.5571V23.2727L33.018 19.5264L23.6096 9.37519L20.1358 13.1233ZM34.6515 16.9896L25.9626 7.61457L29.6467 3.6377L38.3356 13.0127L34.6515 16.9896Z" fill="#232323"/>
<path d="M8.23877 41.3789C12.9348 41.3789 17.6308 41.3789 22.3268 41.3789C27.0511 41.3789 31.7826 41.7024 36.5093 41.7024C39.346 41.7024 42.1671 41.5407 44.9999 41.5407" stroke="#232323" stroke-width="3" stroke-linecap="round"/>
</svg>
