<svg width="51" height="51" viewBox="0 0 51 51" fill="none" xmlns="http://www.w3.org/2000/svg">
<path d="M39.3079 19.5246C38.7712 18.9957 38.4927 18.0492 38.3043 17.3306C37.67 14.8997 36.4652 12.6918 34.5666 11.0744C32.0372 8.91636 28.7154 7.53282 25.2629 7.01983C24.7723 6.94623 24.2105 6.92511 23.7186 7.05807C23.7077 7.0582 23.6935 7.05633 23.6801 7.05717C23.5092 7.06612 23.344 7.11071 23.1938 7.1884C23.0436 7.26608 22.9114 7.37534 22.8048 7.50994C22.6982 7.64453 22.6192 7.80182 22.5723 7.97282C22.5255 8.14383 22.5117 8.3252 22.5318 8.50657L24.9924 30.7208C23.564 29.9104 21.9252 29.6188 20.3016 29.762C17.4943 30.0124 14.7499 31.5265 13.2744 33.7251C12.7795 34.4628 12.3269 35.3977 12.1392 36.3049C11.9465 37.2401 11.9214 38.5551 12.2284 39.5053C12.8702 41.4863 14.2744 43.202 16.1037 44.0613C16.6072 44.2991 17.1559 44.5066 17.6885 44.6272C20.6174 45.3028 23.5539 43.8081 25.4747 41.7223C26.9313 40.1388 28.2309 37.5951 28.067 35.217C28.0811 35.1129 28.0809 35.0069 28.0698 34.8922L26.144 17.4846C26.3628 17.4671 26.5665 17.4449 26.7233 17.439C27.6278 17.3928 28.5383 17.4362 29.4424 17.5816C31.1222 17.8557 32.8554 18.4769 34.1774 19.718C35.4978 20.9625 36.7166 22.1885 38.5221 22.4536C39.2735 22.5655 40.528 22.2732 40.9249 21.572C41.58 20.418 39.8715 20.0784 39.3079 19.5246Z" fill="#ff9a62"/>
</svg>